<?xml version="1.0" standalone="no"?>
<!DOCTYPE svg PUBLIC "-//W3C//DTD SVG 20010904//EN"
 "http://www.w3.org/TR/2001/REC-SVG-20010904/DTD/svg10.dtd">
<svg version="1.0" xmlns="http://www.w3.org/2000/svg"
 width="50px" height="50px" viewBox="0 0 64.000000 64.000000"
 preserveAspectRatio="xMidYMid meet">

<g transform="translate(0.000000,64.000000) scale(0.100000,-0.100000)"
fill="#A3A6B5" stroke="none">
<path d="M226 594 c-71 -22 -159 -112 -180 -184 -34 -115 -12 -206 73 -291 85
-85 176 -107 291 -73 75 22 162 109 184 184 34 115 12 206 -73 291 -85 84
-180 108 -295 73z m164 -143 c5 -11 10 -45 10 -75 l0 -56 40 0 c26 0 40 -5 40
-13 0 -7 -36 -48 -80 -92 l-80 -80 -81 82 c-47 46 -79 85 -75 92 4 6 23 11 42
11 l34 0 0 56 c0 83 9 94 80 94 48 0 61 -4 70 -19z"/>
</g>
</svg>
